# xmcd CD database file
# Copyright (C) 1993-1998 Ti Kan
# 
# Track frame offsets:
#     183
#     11875
#     22700
#     32108
#     49003
#     59080
#     70125
#     83003
#     96048
#     110500
#     124440
#     143060
#     156145
#     173503
#     183250
#     196905
#     212170
#     223085
#     239005
#     255948
# 
# Disc length: 3615 seconds
# 
# Revision: 1
# Processed by: cddbd v1.4b41PL1 Copyright (c) Steve Scherf et al.
# Submitted via: DiscPlay 4.0.4
# 
DISCID=170e1d14
DTITLE=Val Doonican - Take Me Home Country Roads
DYEAR=1900
DGENRE=
TTITLE0=Country Roads
TTITLE1=Walk Right Back
TTITLE2=Snowbird
TTITLE3=Killing Me Softly With Her Song
TTITLE4=Little Arrows
TTITLE5=Walkin' In The Sunshine
TTITLE6=Things
TTITLE7=Rose Garden
TTITLE8=Behind Closed Doors
TTITLE9=Crying Time
TTITLE10=Mississippi
TTITLE11=All I Ever Need Is You
TTITLE12=Loves Been Good To Me
TTITLE13=Annie's Song
TTITLE14=Can't Help Falling In Love
TTITLE15=El Paso
TTITLE16=Everybody's Talking
TTITLE17=Until It's Time For You To Go
TTITLE18=Leaving On A Jet Plane
TTITLE19=Little Green Apples
EXTD=
EXTT0=
EXTT1=
EXTT2=
EXTT3=
EXTT4=
EXTT5=
EXTT6=
EXTT7=
EXTT8=
EXTT9=
EXTT10=
EXTT11=
EXTT12=
EXTT13=
EXTT14=
EXTT15=
EXTT16=
EXTT17=
EXTT18=
EXTT19=
PLAYORDER=
